# xmcd
# Track frame offsets:
# 150
# 16700
# 37051
# 56594
# 69939
# 87280
# 101647
# 121560
# 138156
# 156404
# 172249
# 188829
# 209276
# 224374
# 241914
# 258679
# 272026
# 290570
# 305848
# 317947
# 334784
#
# Disc length: 4650 seconds
# Revision: 0
# Processed by: cddbd v1.5.2PL0 Copyright (c) Steve Scherf et al.
# Submitted via: VisiTrax 2.11.3.279 - For more info visit www.synapsa.com
#
DISCID=3e122815
DTITLE=Rosanne Cash - Rosanne Cash Volume one
DYEAR=2014
DGENRE=
TTITLE0=Dreams Are Not My Home
TTITLE1=April 5th ( with Kris Kristofferson and Elvis Costello)
TTITLE2=The Wheel
TTITLE3=On The Surface
TTITLE4=I´ll Change For You ( with Steve Earle)
TTITLE5=Burn Down This Town
TTITLE6=The Real Me
TTITLE7=September When It Comes (with Johnny Cash)
TTITLE8=I Was Watching You
TTITLE9=What We Really Want
TTITLE10=Like Fugitives
TTITLE11=Last Stop Before Home
TTITLE12=On The Inside
TTITLE13=Rules Of Travel
TTITLE14=The Summer I Read Collette
TTITLE15=Western Wall
TTITLE16=Sleeping In Paris
TTITLE17=If I Were A Man
TTITLE18=Will You Remember Me
TTITLE19=Good Intent
TTITLE20=Motherless Child
EXTD=
EXTT0=
EXTT1=
EXTT2=
EXTT3=
EXTT4=
EXTT5=
EXTT6=
EXTT7=
EXTT8=
EXTT9=
EXTT10=
EXTT11=
EXTT12=
EXTT13=
EXTT14=
EXTT15=
EXTT16=
EXTT17=
EXTT18=
EXTT19=
EXTT20=
PLAYORDER=
